<svg xmlns="http://www.w3.org/2000/svg" version="1.1" xmlns:xlink="http://www.w3.org/1999/xlink" xmlns:svgjs="http://svgjs.dev/svgjs" width="2000" height="343" viewBox="0 0 2000 343"><g transform="matrix(1,0,0,1,-1.2121185035928193,-1.0244821302849232)"><svg viewBox="0 0 396 68" data-background-color="#010c80" preserveAspectRatio="xMidYMid meet" height="343" width="2000" xmlns="http://www.w3.org/2000/svg" xmlns:xlink="http://www.w3.org/1999/xlink"><g id="tight-bounds" transform="matrix(1,0,0,1,0.2399994637113707,0.2031043290360799)"><svg viewBox="0 0 395.5199999999999 67.59379134192781" height="67.59379134192781" width="395.5199999999999"><g><svg viewBox="0 0 498.3849450103644 85.17326046973287" height="67.59379134192781" width="395.5199999999999"><g transform="matrix(1,0,0,1,102.86494501036444,23.851472340129593)"><svg viewBox="0 0 395.5199999999999 37.47031578947368" height="37.47031578947368" width="395.5199999999999"><g id="textblocktransform"><svg viewBox="0 0 395.5199999999999 37.47031578947368" height="37.47031578947368" width="395.5199999999999" id="textblock"><g><svg viewBox="0 0 395.5199999999999 37.47031578947368" height="37.47031578947368" width="395.5199999999999"><g transform="matrix(1,0,0,1,0,0)"><svg width="395.5199999999999" viewBox="1.2000000476837158 -32.400001525878906 343.2799987792969 32.96000289916992" height="37.47031578947368" data-palette-color="#f8fafc"><g class="undefined-text-0" data-fill-palette-color="primary" id="text-0"><path d="M22.75-22.34L22.75-22.34Q22.75-17.55 19.85-15.22 16.94-12.89 11.74-12.89L11.74-12.89 6.25-12.89 6.25 0 1.2 0 1.2-31.86 11.69-31.86Q16.94-31.86 19.85-29.46 22.75-27.05 22.75-22.34ZM17.7-22.41L17.7-22.41Q17.7-24.85 16.1-26.07 14.5-27.29 11.74-27.29L11.74-27.29 6.25-27.29 6.25-17.46 11.74-17.46Q14.5-17.46 16.1-18.68 17.7-19.9 17.7-22.41ZM41.4-13.16L50.49 0 44.09 0 35.84-12.89 33.54-12.89 33.54 0 28.49 0 28.49-31.86 38.99-31.86Q44.24-31.86 47.14-29.46 50.05-27.05 50.05-22.34L50.05-22.34Q50.05-20.24 49.4-18.64 48.75-17.04 47.57-15.89 46.38-14.75 44.81-14.07 43.23-13.4 41.4-13.16L41.4-13.16ZM44.99-22.41L44.99-22.41Q44.99-24.85 43.39-26.07 41.79-27.29 38.99-27.29L38.99-27.29 33.54-27.29 33.54-17.46 38.99-17.46Q41.79-17.46 43.39-18.68 44.99-19.9 44.99-22.41ZM53.78-15.94L53.78-15.94Q53.78-19.14 54.46-22.12 55.15-25.1 56.59-27.37 58.03-29.64 60.36-31.02 62.69-32.4 65.99-32.4L65.99-32.4Q69.28-32.4 71.61-31.02 73.95-29.64 75.41-27.37 76.87-25.1 77.53-22.12 78.19-19.14 78.19-15.94L78.19-15.94Q78.19-12.74 77.53-9.78 76.87-6.81 75.43-4.5 73.99-2.2 71.66-0.82 69.33 0.56 65.99 0.56L65.99 0.56Q62.64 0.56 60.31-0.82 57.98-2.2 56.53-4.5 55.07-6.81 54.43-9.78 53.78-12.74 53.78-15.94ZM58.83-15.94L58.83-15.94Q58.83-13.79 59.16-11.65 59.49-9.5 60.29-7.8 61.08-6.1 62.46-5.05 63.84-4 65.99-4L65.99-4Q68.13-4 69.51-5.05 70.89-6.1 71.69-7.8 72.48-9.5 72.81-11.65 73.14-13.79 73.14-15.94L73.14-15.94Q73.14-18.09 72.81-20.21 72.48-22.34 71.69-24.05 70.89-25.76 69.49-26.81 68.09-27.86 65.99-27.86L65.99-27.86Q62.5-27.86 60.66-24.71 58.83-21.56 58.83-15.94ZM103.43-31.86L103.43 0 98.38 0 98.38-21.56 95.18-10.11 91.28-10.11 88.13-21.56 88.13 0 83.07 0 83.07-31.86 89.08-31.86 93.23-17.46 97.38-31.86 103.43-31.86ZM131.92-22.34L131.92-22.34Q131.92-17.55 129.02-15.22 126.11-12.89 120.91-12.89L120.91-12.89 115.42-12.89 115.42 0 110.37 0 110.37-31.86 120.86-31.86Q126.11-31.86 129.02-29.46 131.92-27.05 131.92-22.34ZM126.87-22.41L126.87-22.41Q126.87-24.85 125.27-26.07 123.67-27.29 120.91-27.29L120.91-27.29 115.42-27.29 115.42-17.46 120.91-17.46Q123.67-17.46 125.27-18.68 126.87-19.9 126.87-22.41ZM159.17-31.86L159.17-20.24 154.65-20.24 154.65-27.29 150.35-27.29 150.35-4.54 155.41-4.54 155.41 0 140.27 0 140.27-4.54 145.3-4.54 145.3-27.29 140.95-27.29 140.95-20.24 136.46-20.24 136.46-31.86 159.17-31.86Z" fill="#000000" data-fill-palette-color="primary"></path><path d="M181.92-22.34L181.92-22.34Q181.92-17.55 179.02-15.22 176.11-12.89 170.91-12.89L170.91-12.89 165.42-12.89 165.42 0 160.37 0 160.37-31.86 170.86-31.86Q176.11-31.86 179.02-29.46 181.92-27.05 181.92-22.34ZM176.87-22.41L176.87-22.41Q176.87-24.85 175.27-26.07 173.67-27.29 170.91-27.29L170.91-27.29 165.42-27.29 165.42-17.46 170.91-17.46Q173.67-17.46 175.27-18.68 176.87-19.9 176.87-22.41ZM210.71 0L205.41 0 203.11-7.59 192.57-7.59 190.32 0 185.02 0 194.96-31.86 200.77-31.86 210.71 0ZM197.86-25.2L193.91-12.06 201.77-12.06 197.86-25.2ZM235.31-4.54L235.31 0 214.95 0 214.95-31.86 220-31.86 220-4.54 235.31-4.54ZM265.29 0L259.99 0 257.7-7.59 247.15-7.59 244.9 0 239.61 0 249.54-31.86 255.35-31.86 265.29 0ZM252.45-25.2L248.49-12.06 256.35-12.06 252.45-25.2ZM291.04-31.86L291.04-20.24 286.53-20.24 286.53-27.29 282.23-27.29 282.23-4.54 287.29-4.54 287.29 0 272.15 0 272.15-4.54 277.18-4.54 277.18-27.29 272.83-27.29 272.83-20.24 268.34-20.24 268.34-31.86 291.04-31.86ZM318.34-31.86L318.34-20.24 313.82-20.24 313.82-27.29 309.52-27.29 309.52-4.54 314.58-4.54 314.58 0 299.44 0 299.44-4.54 304.47-4.54 304.47-27.29 300.12-27.29 300.12-20.24 295.63-20.24 295.63-31.86 318.34-31.86ZM344.48-4.54L344.48 0 324.12 0 324.12-31.86 344.48-31.86 344.48-27.29 329.17-27.29 329.17-18.51 341.11-18.51 341.11-13.94 329.17-13.94 329.17-4.54 344.48-4.54Z" fill="#000000" data-fill-palette-color="primary"></path></g></svg></g></svg></g></svg></g></svg></g><g><svg viewBox="0 0 85.17326046973287 85.17326046973287" height="85.17326046973287" width="85.17326046973287"><g><svg></svg></g><g id="icon-0"><svg viewBox="0 0 85.17326046973287 85.17326046973287" height="85.17326046973287" width="85.17326046973287"><g><path d="M0 42.587c0-23.52 19.067-42.587 42.587-42.587 23.52 0 42.587 19.067 42.586 42.587 0 23.52-19.067 42.587-42.586 42.586-23.52 0-42.587-19.067-42.587-42.586zM42.587 81.794c21.654 0 39.208-17.554 39.207-39.207 0-21.654-17.554-39.208-39.207-39.208-21.654 0-39.208 17.554-39.208 39.208 0 21.654 17.554 39.208 39.208 39.207z" data-fill-palette-color="accent" fill="#000000" stroke="transparent"></path></g><g transform="matrix(1,0,0,1,22.34419889629996,23.50468164831595)"><svg viewBox="0 0 40.484862677132945 38.16389717310096" height="38.16389717310096" width="40.484862677132945"><g><svg xmlns="http://www.w3.org/2000/svg" xmlns:xlink="http://www.w3.org/1999/xlink" version="1.1" x="0" y="0" viewBox="7.005788803100586 6.640192031860352 89.99774169921875 84.83824157714844" enable-background="new 0 0 100 100" xml:space="preserve" height="38.16389717310096" width="40.484862677132945" class="icon-s-0" data-fill-palette-color="accent" id="s-0"><g fill="#f8fafc" data-fill-palette-color="accent"><g fill="#f8fafc" data-fill-palette-color="accent"><path fill="#000000" d="M60.3 73.2c-2.9-0.7-5.9 1.1-6.7 4l-0.1 0.3c-1.2 5.3-4.4 9.9-8.9 12.9 0.7 0.3 1.5 0.5 2.2 0.7 7.8 1.8 15.6-3 17.6-10.6l0.1-0.4C65.3 76.9 63.4 73.9 60.3 73.2z" data-fill-palette-color="accent"></path><path fill="#000000" d="M53.5 60.5c1.4-0.2 2.9-0.2 4.7 0l1.2 0.2 0.2-2.1 0-0.1c0 0 0-0.3 0.2-1l0.4-1.3L58.9 56c-1.3-0.2-2.5-0.3-3.6-0.3-2.4 0-4.6 0.4-6.7 1.3-6.1 2.6-7.8 9.3-9.3 15.1-0.5 1.8-0.9 3.6-1.5 5.1-1.6 4.3-5 6.7-9.3 6.7-1.1 0-2.3-0.2-3.5-0.5-5.2-1.4-8.8-6.1-11.1-9.6-4.3-8.7-1.1-18.5 2.6-27.8 3.8-9.7 8.3-19.6 17.4-25 6.9-4.1 16.5-4.4 28.2-0.8 5.4 1.6 10.1 3.8 13.9 6.5l1 0.7 2.4-4.1-0.9-0.6c-4.9-3.4-11-6.1-18.5-8-10.1-2.6-19.6-2.1-27.3 1.6C23.6 20.7 18.4 30 14.5 38.6 8.9 51 3.8 64.1 9.5 75.7c0.1 0.2 0.1 0.3 0.2 0.4 0.1 0.1 0.2 0.3 0.3 0.4 3.7 5.6 10 12.3 18.4 12.3 0.6 0 1.2 0 1.8-0.1C40 87.6 42.4 79 44.5 71.5l0.4-1.4C46.5 64.2 49.2 61.3 53.5 60.5z" data-fill-palette-color="accent"></path><path fill="#000000" d="M93.1 35.3c-1.2-1.9-2.7-3.7-4.5-5.5l-1.3-1.3-1.9 4.8L86 34c3.3 3.5 5.3 7.5 6.1 11.9 0.8 4.7-0.8 9.6-4.4 13.2-2.1 2.1-4.8 3.1-8.4 3.1-1.2 0-2.6-0.1-4-0.4l-0.9-0.2L74 62.5c-0.3 0.7-0.7 1.5-1 2.1L72.2 66l1.6 0.3c1.8 0.4 3.6 0.5 5.2 0.5 6 0 10.8-2.4 14.4-7.1C99.1 52.2 97.3 41.8 93.1 35.3z" data-fill-palette-color="accent"></path><path fill="#000000" d="M72.7 61.3l14.5-36.9 1.2-3.1 5.2-13.1c0.1-0.1 0-0.3-0.1-0.4L92 6.7c-0.2-0.1-0.4-0.1-0.5 0.2l-6.2 10.4-1.5 2.6L62.5 55.5c-0.3 0.5-0.8 1.5-1.1 2.4-0.2 0.7-0.4 1.3-0.5 1.8l-0.2 1-1.5 7.6c0 0 0 0 0 0.1-0.1 1 0.5 2.3 1.3 2.6l3.2 1.8c0.8 0.4 1.9 0.2 2.6-0.6 0 0 0 0 0-0.1l3.8-5.9c0.2-0.2 0.5-0.8 0.9-1.5 0.5-0.9 1-2 1.3-2.8C72.5 61.8 72.6 61.5 72.7 61.3z" data-fill-palette-color="accent"></path></g><circle fill="#000000" cx="25.1" cy="67.9" r="5.9" data-fill-palette-color="accent"></circle><circle fill="#000000" cx="30.9" cy="48.3" r="5.9" data-fill-palette-color="accent"></circle><circle fill="#000000" cx="42.3" cy="31.4" r="5.9" data-fill-palette-color="accent"></circle><circle fill="#000000" cx="61.4" cy="31.4" r="5.9" data-fill-palette-color="accent"></circle></g></svg></g></svg></g></svg></g></svg></g></svg></g><defs></defs></svg><rect width="395.5199999999999" height="67.59379134192781" fill="none" stroke="none" visibility="hidden"></rect></g></svg></g></svg>